<svg width="11" height="10" viewBox="0 0 10 9" fill="none" xmlns="http://www.w3.org/2000/svg">
<mask id="path-1-inside-1" fill="white">
<path d="M6.73388 0.79431C6.59765 0.633891 6.37091 0.633891 6.22991 0.79431C6.09368 0.94931 6.09368 1.20728 6.22991 1.36192L8.78533 4.26934H0.35281C0.15624 4.2697 0 4.44746 0 4.67111C0 4.89475 0.15624 5.0783 0.35281 5.0783H8.78533L6.22991 7.98029C6.09368 8.14071 6.09368 8.39904 6.22991 8.55368C6.37091 8.7141 6.59797 8.7141 6.73388 8.55368L9.89425 4.95798C10.0352 4.80298 10.0352 4.54501 9.89425 4.39037L6.73388 0.79431Z"/>
</mask>
<path d="M6.73388 0.79431L5.97166 1.44162L5.97714 1.44808L5.98274 1.45445L6.73388 0.79431ZM6.22991 1.36192L6.98103 0.701744L6.98026 0.700876L6.22991 1.36192ZM8.78533 4.26934V5.26934H10.9956L9.53644 3.60916L8.78533 4.26934ZM0.35281 4.26934L0.35281 3.26933L0.350972 3.26934L0.35281 4.26934ZM8.78533 5.0783L9.53583 5.73917L10.9983 4.0783H8.78533V5.0783ZM6.22991 7.98029L5.47941 7.31942L5.47349 7.32615L5.46769 7.33298L6.22991 7.98029ZM6.22991 8.55368L6.98103 7.89351L6.98026 7.89264L6.22991 8.55368ZM6.73388 8.55368L5.98277 7.89351L5.97678 7.90032L5.97091 7.90725L6.73388 8.55368ZM9.89425 4.95798L9.15452 4.28508L9.14878 4.29139L9.14314 4.29781L9.89425 4.95798ZM9.89425 4.39037L9.14311 5.05051L9.14914 5.05738L9.1553 5.06414L9.89425 4.39037ZM7.49611 0.147C6.95378 -0.491604 6.01107 -0.471452 5.4788 0.134136L6.98103 1.45449C6.87103 1.57963 6.69382 1.674 6.48369 1.674C6.27214 1.674 6.0874 1.57791 5.97166 1.44162L7.49611 0.147ZM5.4788 0.134136C5.01111 0.666256 5.01008 1.49005 5.47957 2.02296L6.98026 0.700876C7.09358 0.829507 7.12774 0.971055 7.12774 1.07825C7.12774 1.18548 7.09359 1.32642 6.98103 1.45449L5.4788 0.134136ZM5.4788 2.02209L8.03422 4.92951L9.53644 3.60916L6.98103 0.701745L5.4788 2.02209ZM8.78533 3.26934H0.35281V5.26934H8.78533V3.26934ZM0.350972 3.26934C-0.513324 3.27093 -1 4.01972 -1 4.67111H1C1 4.8752 0.825804 5.26847 0.354648 5.26933L0.350972 3.26934ZM-1 4.67111C-1 5.3022 -0.530528 6.0783 0.35281 6.0783V4.0783C0.581825 4.0783 0.758943 4.18824 0.860229 4.30578C0.958912 4.42029 1 4.5525 1 4.67111H-1ZM0.35281 6.0783H8.78533V4.0783H0.35281V6.0783ZM8.03483 4.41743L5.47941 7.31942L6.98041 8.64116L9.53583 5.73917L8.03483 4.41743ZM5.46769 7.33298C5.02038 7.85969 5.0045 8.67548 5.47957 9.21473L6.98026 7.89264C7.09426 8.02204 7.12774 8.16389 7.12774 8.26915C7.12774 8.37498 7.09434 8.50726 6.99214 8.6276L5.46769 7.33298ZM5.4788 9.21386C6.01059 9.8189 6.95434 9.84044 7.49685 9.20011L5.97091 7.90725C6.08725 7.76994 6.27254 7.674 6.4838 7.674C6.69359 7.674 6.87082 7.76811 6.98103 7.89351L5.4788 9.21386ZM7.485 9.21386L10.6454 5.61816L9.14314 4.29781L5.98277 7.89351L7.485 9.21386ZM10.634 5.63089C11.1216 5.09484 11.1227 4.25344 10.6332 3.71661L9.1553 5.06414C9.03898 4.93656 9 4.79062 9 4.67404C9 4.55744 9.03897 4.41211 9.15452 4.28508L10.634 5.63089ZM10.6454 3.73023L7.48503 0.134173L5.98274 1.45445L9.14311 5.05051L10.6454 3.73023Z" fill="white" mask="url(#path-1-inside-1)"/>
</svg>
