<svg width="29" height="28" viewBox="0 0 29 28" fill="none" xmlns="http://www.w3.org/2000/svg">
<path d="M20.6418 17.3358L20.368 17.6859L20.6836 17.9988L27.2983 24.5594C27.2987 24.5599 27.2992 24.5603 27.2996 24.5608C27.6138 24.8798 27.6133 25.3948 27.2947 25.7133L25.747 27.2609L25.7451 27.2628C25.4336 27.5776 24.9213 27.5808 24.6013 27.2622C24.6008 27.2618 24.6004 27.2613 24.5999 27.2609L17.8916 20.4385L17.5787 20.1203L17.2271 20.3951C16.2961 21.1229 15.4781 21.5786 14.5897 21.8573C13.6971 22.1373 12.7046 22.2478 11.4103 22.2478C5.40234 22.2478 0.5345 17.3807 0.5345 11.3739C0.5345 5.36713 5.40234 0.5 11.4103 0.5C17.4183 0.5 22.2861 5.36712 22.2861 11.3739C22.2861 13.9724 22.0495 15.5356 20.6418 17.3358Z" stroke="#b6b6b6"/>
</svg>
