<svg width="19" height="24" viewBox="0 0 13 16" fill="none" xmlns="http://www.w3.org/2000/svg">
<mask id="path-1-inside-1" fill="white">
<path fill-rule="evenodd" clip-rule="evenodd" d="M8.4375 1.875H10.7812C11.5567 1.875 12.1875 2.50584 12.1875 3.28125V4.21875C12.1875 4.47762 11.9776 4.6875 11.7188 4.6875H11.25V14.5938C11.25 15.3692 10.6192 16 9.84375 16H2.34375C1.56834 16 0.9375 15.3692 0.9375 14.5938V4.6875H0.46875C0.209875 4.6875 0 4.47762 0 4.21875V3.28125C0 2.50584 0.630844 1.875 1.40625 1.875H3.75V1.40625C3.75 0.630844 4.38084 0 5.15625 0H7.03125C7.80666 0 8.4375 0.630844 8.4375 1.40625V1.875ZM5.15625 0.9375C4.89778 0.9375 4.6875 1.14778 4.6875 1.40625V1.875H7.5V1.40625C7.5 1.14778 7.28972 0.9375 7.03125 0.9375H5.15625ZM9.84375 15.0625C10.1022 15.0625 10.3125 14.8522 10.3125 14.5938V4.6875H1.875V14.5938C1.875 14.8522 2.08528 15.0625 2.34375 15.0625H9.84375ZM0.9375 3.75H11.25V3.28125C11.25 3.02278 11.0397 2.8125 10.7812 2.8125H1.40625C1.14778 2.8125 0.9375 3.02278 0.9375 3.28125V3.75ZM3.91003 7.42678C4.49872 6.90269 5.27075 6.59375 6.09375 6.59375C7.90303 6.59375 9.375 8.06572 9.375 9.875C9.375 11.6843 7.90303 13.1562 6.09375 13.1562C5.21732 13.1562 4.39332 12.8149 3.77357 12.1952C3.5905 12.0121 3.5905 11.7153 3.77357 11.5323C3.95663 11.3492 4.25344 11.3492 4.43647 11.5323C4.87916 11.975 5.46772 12.2188 6.09375 12.2188C7.3861 12.2188 8.4375 11.1673 8.4375 9.875C8.4375 8.58266 7.3861 7.53125 6.09375 7.53125C5.34403 7.53125 4.65347 7.89 4.21832 8.46875H5.15625C5.41513 8.46875 5.625 8.67863 5.625 8.9375C5.625 9.19637 5.41513 9.40625 5.15625 9.40625H3.44128C3.18738 9.40625 2.97547 9.20047 2.97278 8.94244L2.97253 8.9375V7.0625C2.97253 6.80363 3.18241 6.59375 3.44128 6.59375C3.70016 6.59375 3.91003 6.80363 3.91003 7.0625V7.42678Z"/>
</mask>
<path d="M8.4375 1.875H7.4375V2.875H8.4375V1.875ZM11.25 4.6875V3.6875H10.25V4.6875H11.25ZM0.9375 4.6875H1.9375V3.6875H0.9375V4.6875ZM3.75 1.875V2.875H4.75V1.875H3.75ZM4.6875 1.875H3.6875V2.875H4.6875V1.875ZM7.5 1.875V2.875H8.5V1.875H7.5ZM10.3125 4.6875H11.3125V3.6875H10.3125V4.6875ZM1.875 4.6875V3.6875H0.875V4.6875H1.875ZM11.25 3.75V4.75H12.25V3.75H11.25ZM0.9375 3.75H-0.0625V4.75H0.9375V3.75ZM3.91003 7.42678H2.91003V9.65593L4.57498 8.17368L3.91003 7.42678ZM4.43647 11.5323L3.7293 12.2393L3.72937 12.2394L4.43647 11.5323ZM4.21832 8.46875L3.41904 7.86778L2.21529 9.46875H4.21832V8.46875ZM2.97278 8.94244L3.97273 8.93202L3.97252 8.91195L3.97151 8.89189L2.97278 8.94244ZM2.97253 8.9375H1.97253V8.96279L1.97381 8.98804L2.97253 8.9375ZM10.7812 0.875H8.4375V2.875H10.7812V0.875ZM13.1875 3.28125C13.1875 1.95356 12.1089 0.875 10.7812 0.875V2.875C11.0044 2.875 11.1875 3.05813 11.1875 3.28125H13.1875ZM13.1875 4.21875V3.28125H11.1875V4.21875H13.1875ZM11.7188 5.6875C12.5299 5.6875 13.1875 5.02991 13.1875 4.21875H11.1875C11.1875 3.92534 11.4253 3.6875 11.7188 3.6875V5.6875ZM11.25 5.6875H11.7188V3.6875H11.25V5.6875ZM12.25 14.5938V4.6875H10.25V14.5938H12.25ZM9.84375 17C11.1714 17 12.25 15.9214 12.25 14.5938H10.25C10.25 14.8169 10.0669 15 9.84375 15V17ZM2.34375 17H9.84375V15H2.34375V17ZM-0.0625 14.5938C-0.0625 15.9214 1.01606 17 2.34375 17V15C2.12063 15 1.9375 14.8169 1.9375 14.5938H-0.0625ZM-0.0625 4.6875V14.5938H1.9375V4.6875H-0.0625ZM0.46875 5.6875H0.9375V3.6875H0.46875V5.6875ZM-1 4.21875C-1 5.02991 -0.34241 5.6875 0.46875 5.6875V3.6875C0.76216 3.6875 1 3.92534 1 4.21875H-1ZM-1 3.28125V4.21875H1V3.28125H-1ZM1.40625 0.875C0.0785591 0.875 -1 1.95356 -1 3.28125H1C1 3.05813 1.18313 2.875 1.40625 2.875V0.875ZM3.75 0.875H1.40625V2.875H3.75V0.875ZM2.75 1.40625V1.875H4.75V1.40625H2.75ZM5.15625 -1C3.82856 -1 2.75 0.0785591 2.75 1.40625H4.75C4.75 1.18313 4.93313 1 5.15625 1V-1ZM7.03125 -1H5.15625V1H7.03125V-1ZM9.4375 1.40625C9.4375 0.0785591 8.35894 -1 7.03125 -1V1C7.25437 1 7.4375 1.18313 7.4375 1.40625H9.4375ZM9.4375 1.875V1.40625H7.4375V1.875H9.4375ZM5.6875 1.40625C5.6875 1.70007 5.45007 1.9375 5.15625 1.9375V-0.0625C4.3455 -0.0625 3.6875 0.595496 3.6875 1.40625H5.6875ZM5.6875 1.875V1.40625H3.6875V1.875H5.6875ZM7.5 0.875H4.6875V2.875H7.5V0.875ZM6.5 1.40625V1.875H8.5V1.40625H6.5ZM7.03125 1.9375C6.73743 1.9375 6.5 1.70007 6.5 1.40625H8.5C8.5 0.595496 7.842 -0.0625 7.03125 -0.0625V1.9375ZM5.15625 1.9375H7.03125V-0.0625H5.15625V1.9375ZM9.3125 14.5938C9.3125 14.2999 9.54993 14.0625 9.84375 14.0625V16.0625C10.6545 16.0625 11.3125 15.4045 11.3125 14.5938H9.3125ZM9.3125 4.6875V14.5938H11.3125V4.6875H9.3125ZM1.875 5.6875H10.3125V3.6875H1.875V5.6875ZM2.875 14.5938V4.6875H0.875V14.5938H2.875ZM2.34375 14.0625C2.63757 14.0625 2.875 14.2999 2.875 14.5938H0.875C0.875 15.4045 1.533 16.0625 2.34375 16.0625V14.0625ZM9.84375 14.0625H2.34375V16.0625H9.84375V14.0625ZM11.25 2.75H0.9375V4.75H11.25V2.75ZM10.25 3.28125V3.75H12.25V3.28125H10.25ZM10.7812 3.8125C10.4874 3.8125 10.25 3.57507 10.25 3.28125H12.25C12.25 2.4705 11.592 1.8125 10.7812 1.8125V3.8125ZM1.40625 3.8125H10.7812V1.8125H1.40625V3.8125ZM1.9375 3.28125C1.9375 3.57507 1.70007 3.8125 1.40625 3.8125V1.8125C0.595496 1.8125 -0.0625 2.4705 -0.0625 3.28125H1.9375ZM1.9375 3.75V3.28125H-0.0625V3.75H1.9375ZM6.09375 5.59375C5.01851 5.59375 4.01156 5.99752 3.24509 6.67989L4.57498 8.17368C4.98588 7.80786 5.52299 7.59375 6.09375 7.59375V5.59375ZM10.375 9.875C10.375 7.51343 8.45532 5.59375 6.09375 5.59375V7.59375C7.35075 7.59375 8.375 8.618 8.375 9.875H10.375ZM6.09375 14.1562C8.45532 14.1562 10.375 12.2366 10.375 9.875H8.375C8.375 11.132 7.35075 12.1562 6.09375 12.1562V14.1562ZM3.06646 12.9023C3.87374 13.7096 4.95209 14.1562 6.09375 14.1562V12.1562C5.48254 12.1562 4.91289 11.9203 4.48067 11.4881L3.06646 12.9023ZM3.06646 10.8252C2.49287 11.3988 2.49287 12.3287 3.06646 12.9023L4.48067 11.4881C4.68813 11.6955 4.68813 12.0319 4.48067 12.2394L3.06646 10.8252ZM5.14364 10.8252C4.57004 10.2515 3.64001 10.2516 3.06646 10.8252L4.48067 12.2394C4.27324 12.4468 3.93684 12.4469 3.7293 12.2393L5.14364 10.8252ZM6.09375 11.2188C5.73293 11.2188 5.39873 11.0803 5.14358 10.8252L3.72937 12.2394C4.35959 12.8696 5.20251 13.2188 6.09375 13.2188V11.2188ZM7.4375 9.875C7.4375 10.6151 6.83381 11.2188 6.09375 11.2188V13.2188C7.93838 13.2188 9.4375 11.7196 9.4375 9.875H7.4375ZM6.09375 8.53125C6.83381 8.53125 7.4375 9.13494 7.4375 9.875H9.4375C9.4375 8.03037 7.93838 6.53125 6.09375 6.53125V8.53125ZM5.01759 9.06972C5.2681 8.73655 5.66538 8.53125 6.09375 8.53125V6.53125C5.02269 6.53125 4.03885 7.04345 3.41904 7.86778L5.01759 9.06972ZM5.15625 7.46875H4.21832V9.46875H5.15625V7.46875ZM6.625 8.9375C6.625 8.12634 5.96741 7.46875 5.15625 7.46875V9.46875C4.86284 9.46875 4.625 9.23091 4.625 8.9375H6.625ZM5.15625 10.4062C5.96741 10.4062 6.625 9.74866 6.625 8.9375H4.625C4.625 8.64409 4.86284 8.40625 5.15625 8.40625V10.4062ZM3.44128 10.4062H5.15625V8.40625H3.44128V10.4062ZM1.97284 8.95285C1.98129 9.76432 2.64442 10.4062 3.44128 10.4062V8.40625C3.73034 8.40625 3.96965 8.63661 3.97273 8.93202L1.97284 8.95285ZM1.97381 8.98804L1.97406 8.99298L3.97151 8.89189L3.97126 8.88696L1.97381 8.98804ZM1.97253 7.0625V8.9375H3.97253V7.0625H1.97253ZM3.44128 5.59375C2.63012 5.59375 1.97253 6.25134 1.97253 7.0625H3.97253C3.97253 7.35591 3.73469 7.59375 3.44128 7.59375V5.59375ZM4.91003 7.0625C4.91003 6.25134 4.25244 5.59375 3.44128 5.59375V7.59375C3.14787 7.59375 2.91003 7.35591 2.91003 7.0625H4.91003ZM4.91003 7.42678V7.0625H2.91003V7.42678H4.91003Z" fill="#FF1203" mask="url(#path-1-inside-1)"/>
</svg>
